<?xml version="1.0" standalone="no"?>
<!DOCTYPE svg PUBLIC "-//W3C//DTD SVG 20010904//EN"
 "http://www.w3.org/TR/2001/REC-SVG-20010904/DTD/svg10.dtd">
<svg version="1.0" xmlns="http://www.w3.org/2000/svg"
 width="256.000000pt" height="144.000000pt" viewBox="0 0 256.000000 144.000000"
 preserveAspectRatio="xMidYMid meet">

<g transform="translate(0.000000,144.000000) scale(0.100000,-0.100000)"
fill="#000000" stroke="none">
<path d="M1173 1092 c-102 -36 -184 -112 -232 -212 -22 -48 -26 -68 -26 -160
0 -95 3 -110 28 -162 41 -84 105 -149 184 -189 64 -32 73 -34 173 -34 92 0
112 3 160 26 82 38 154 109 192 187 31 62 33 73 33 172 0 93 -3 112 -27 162
-37 80 -107 152 -186 190 -56 28 -77 33 -156 35 -69 3 -103 -1 -143 -15z m137
-167 c0 -31 4 -44 13 -42 12 2 13 -6 9 -145 -2 -46 -6 -68 -11 -59 -5 7 -14
10 -20 7 -6 -4 -11 0 -12 11 0 16 -1 16 -8 -2 -5 -11 -4 -21 0 -23 16 -6 10
-20 -11 -25 -12 -3 -20 -14 -20 -26 0 -27 4 -27 40 9 34 34 55 31 46 -6 -9
-35 13 -30 25 6 6 17 12 30 14 30 19 0 35 -17 35 -39 l1 -26 20 28 c11 15 27
27 34 27 8 0 15 -12 17 -27 3 -25 6 -22 33 32 17 32 36 61 43 63 21 6 13 -23
-19 -67 -28 -40 -33 -69 -7 -43 7 7 16 12 22 12 5 0 1 -7 -10 -15 -42 -31
-112 -9 -81 26 10 11 9 11 -5 0 -10 -7 -15 -17 -12 -22 8 -14 -27 -23 -45 -12
-11 6 -24 5 -41 -3 -14 -7 -29 -9 -33 -5 -5 5 -35 6 -68 4 -52 -4 -59 -3 -59
13 0 16 -1 16 -12 2 -16 -19 -46 -30 -53 -19 -4 8 -18 8 -82 2 -7 -1 -18 -19
-24 -41 -7 -22 -16 -40 -22 -40 -5 0 -6 7 -3 15 3 9 13 39 21 68 13 45 19 53
41 55 20 1 24 -2 20 -16 -4 -13 0 -18 14 -19 11 -1 23 3 26 9 5 7 1 9 -9 5
-10 -3 -17 -2 -17 3 0 6 2 10 4 10 2 0 11 3 20 6 12 5 16 0 16 -21 0 -30 23
-30 28 1 2 10 9 24 14 29 8 7 9 4 4 -10 -6 -16 -5 -18 5 -8 21 21 32 15 25
-12 -4 -14 -2 -25 3 -25 14 0 31 81 20 101 -5 10 -9 56 -9 103 l0 86 -55 0
-55 0 0 -40 c0 -39 1 -40 37 -40 20 0 34 -2 31 -6 -3 -3 -40 -2 -81 2 l-76 7
-3 78 -3 79 143 0 142 0 0 -45z"/>
</g>
</svg>
